<?xml version="1.0" encoding="UTF-8"?>
<!DOCTYPE svg PUBLIC "-//W3C//DTD SVG 1.1//EN"
		"http://www.w3.org/Graphics/SVG/1.1/DTD/svg11.dtd">
<svg version="1.1" id="Layer_1"
		xmlns="http://www.w3.org/2000/svg" xmlns:xlink="http://www.w3.org/1999/xlink" x="0px" y="0px"
		width="1700px" height="1719.4029850746px" viewBox="0 0 241 223.6"
		style="enable-background:new 0 0 201 203.6;" xml:space="preserve"><style type="text/css">
	.st0{fill:#fdfdfe;}
	.st1{fill:#d4ebff;}
	.st2{fill:#3c9925;}
	.st3{fill:#38a6f9;}
	.st4{fill:#737ee5;}
	.st5{fill:#202418;}
	.st6{fill:#f7e6ff;}
	.st7{fill:#c4b96a;}
	.st8{fill:#eaad57;}
	.st9{fill:#bc72e8;}
	.st10{fill:#3a3454;}
	.st11{fill:#ffe1f4;}
	.st12{fill:#b3c660;}
	.st13{fill:#dd289c;}
	.st14{fill:#59536b;}
	.st15{fill:#fcebf1;}
	.st16{fill:#c0c683;}
	.st17{fill:#ffa9a9;}
	.st18{fill:#f96767;}
	.st19{fill:#5e5952;}
	.st20{fill:#fceddc;}
	.st21{fill:#9f9473;}
	.st22{fill:#e27933;}
	.st23{fill:#e593b3;}
	.st24{fill:#2d2819;}
	.st25{fill:#fff4c5;}
	.st26{fill:#aed630;}
	.st27{fill:#f76a31;}
	.st28{fill:#3a4651;}
	.st29{fill:#f6f9dc;}
	.st30{fill:#1b891b;}
	.st31{fill:#ea4470;}
	.st32{fill:#2e3825;}
	.st33{fill:#e9fffd;}
	.st34{fill:#55c655;}
	.st35{fill:#ffac3e;}
	.st36{fill:#36ccaf;}
	.st37{fill:#3f372c;}
	.st38{fill:#6db56b;}
	.st39{fill:#f1924c;}
	.st40{fill:#ec8654;}
</style><style type='text/css'>.title{fill:#ffab01;}.slogan{fill:#ff8648;}</style><g transform="scale(0.58001768346596) translate(71.470579268293,0)"><g>
	<path class="st0" d="M76.2,209.9l-3.5,4c-0.1,0.1-0.2,0.1-0.3,0c0,0-0.1-0.1-0.1-0.1l-0.4-3.7C73.3,209.8,74.7,209.7,76.2,209.9z"
		/>
	<path class="st20" d="M138.9,209.6c-3.5,0.2-6.9,0.3-10.3,0.3c-10.2,0.1-20.5,0.1-30.8,0.2c-0.3-12.7-0.6-25.6-0.9-38.6
		c0-1.6-2.7-1.5-2.7,0.3c0.1,11,0.4,23.8,0.9,38.4l-15.7,0c0.9-1,0.8-1.8,0-2.4c-0.6-0.4-1-0.4-1.4,0c-0.8,0.8-1.4,1.6-2,2.2
		c-1.4-0.2-2.8-0.1-4.2,0.2l-0.7-4.3c0-0.3,0.1-0.4,0.3-0.5c0.9-0.4,1.9-1.1,2.7-2c1.6-1.6,3-3,4.2-4.3c0.5-0.5,0.5-1.1,0.1-1.7
		c-0.1-0.1-0.1-0.2-0.2-0.2c-0.7-0.5-1.3-0.5-1.9,0.1l-5.1,5.3c-0.1,0.1-0.3,0.1-0.4,0c0,0-0.1-0.1-0.1-0.1
		c-0.5-2.6-0.9-5.3-1.2-8.1c0-0.2,0.1-0.3,0.2-0.4c3.1-1.2,5.8-4,7.9-6.4c0.6-0.7,0.6-1.3,0.1-2c-0.1-0.1-0.2-0.2-0.3-0.3
		c-0.7-0.3-1.2-0.2-1.7,0.3c-1.8,1.9-4,4.3-6.4,5.6c-0.2,0.1-0.4,0-0.5-0.1c0,0,0-0.1,0-0.1c-0.2-2.6-0.7-5.1-1.3-7.5
		c0.2-0.2,0.6-0.3,1-0.5c1.7-0.7,2.7-2.9,2.8-4.7c0.3-4.1-4-8-8.1-6.3c-1.5,0.6-2.6,1.2-3.4,2c-3.1,2.9-1.8,7.1,1.8,8.7
		c1.3,0.6,2.7,0.9,4,0.9c0.4,0,0.6,0.1,0.5,0.3c-0.1,0.4-0.2,0.7-0.1,1.1c0.3,2.2,0.6,4.4,1.1,6.5c0,0.1,0,0.2-0.2,0.2
		c0,0,0,0-0.1,0c-3-0.3-6-1.7-8.6-3.1c-0.3-0.1-0.6-0.2-0.9,0c-0.4,0.2-0.7,0.4-0.8,0.8c-0.3,0.8-0.1,1.4,0.6,1.8
		c3.4,1.9,6.7,3,10.1,3.2c0.2,0,0.3,0.1,0.3,0.3l1.1,7.6c0.1,0.6-0.2,0.7-0.7,0.6c-3.1-0.9-6-2-8.7-3.3c-0.6-0.3-1.2-0.2-1.6,0.4
		c-0.1,0.1-0.1,0.2-0.2,0.3c-0.3,0.8-0.1,1.4,0.7,1.7c3.6,1.6,7.2,2.8,10.7,3.7c0.1,0,0.2,0.1,0.2,0.3l0.5,4.1l-28.6-0.1
		c1.5-8.3,2.4-14.5,2.9-18.6c0.9-7.7,1.7-14.8,2.2-21.2c0.1-1.1,0.2-3.7,0.3-7.7c0.3-8.5,0.5-17.3,0.8-26.4c0.1-2.2,0.2-5.4,0.5-9.7
		c0.2-3.4,0.7-6.9,1.2-10.3c0.6-4.6,1.5-8.8,2.4-12.6c1.7-6.8,4.2-13.3,8-19.1c2.2-3.4,5.1-6.8,8.8-8.5c1.4-0.6,3.9-1,4.8,0.7
		c0.7,1.4,1.1,3.2,1.1,5.2c0.1,2.9,0,5.8-0.3,8.6c0,0.1-0.1,0.2-0.2,0.2c-2.3,0.2-5.2,0.3-7.4,1.3c-0.5,0.2-0.7,0.6-0.4,1.2
		c0.2,0.4,0.6,0.7,1.1,0.6c5.2-0.8,10.5-1.3,15.9-1.4c12.4-0.3,22.5-0.3,33.6,1c2,0.2,3.9,0.8,5.9,1c1.9,0.1,3.9,0.2,5.7,0.3
		c0.8,0,1.2-0.3,1.2-1.1c0,0,0-0.1,0-0.1c-0.1-0.6-0.7-1.1-1.4-1.1c-3.5,0.1-7-0.3-10.2-1c-0.3-0.1-0.4-0.2-0.2-0.5
		c2.6-3.9,5.4-7.2,8.4-9.9c0.5-0.4,1.1-0.9,1.9-1.3c1.5-0.8,3,1.5,3.6,2.5c1.8,2.6,3.4,5.4,4.8,8.6c3.8,8.9,5.8,18.3,6.6,27.9
		c0.6,6.9,0.2,13.2-1.1,18.8c-1.2,5-4,10.1-8.7,12.2c-0.1,0.1-0.2,0.2-0.3,0.3c-0.1,0.6-0.2,1.2-0.1,1.9c0.4,3.1,0.7,6.2,1,9.3
		c0.8,8.1,1.8,16,2.6,24.1c0.2,1.8,0.4,3.5,0.6,5.3c0.3,2.4,0.4,4.7,0.7,7.1C138.2,201.4,138.6,205.4,138.9,209.6z"/>
	<g>
		<path class="st38" d="M15.7,67.5l-0.1,3.8c-2.5-1.6-4.7-3.4-6.6-5.5c-0.9-1-2.8-3.5-0.9-4.1c0.4-0.1,0.9-0.1,1.4,0.2
			C11.9,63,14,64.9,15.7,67.5z"/>
		<path class="st38" d="M17.9,71.5l0-3.9c1.6-1.9,3.2-3.5,5-4.6c0.5-0.4,1.2-0.7,1.9-1c1.2-0.5,2.5,0.1,2.3,1.5
			c-0.1,0.7-0.6,1.5-1.5,2.4C23.7,68.1,20.9,70.8,17.9,71.5z"/>
		<path class="st38" d="M160.3,71.6c0.2,0.2,0.4,0.5,0.6,0.8c-3.5,0.2-6.9,0.6-10.3,1.1c-2.9,0.5-4.9,0.7-5.9,0.7
			c-3.2-0.1-8.1-0.9-9.4-4c-0.6-1.4-0.3-2.5,0.7-3.4c1.7-1.5,7.2-0.5,9.1,0c0.9,0.2,2.9,0.9,5.9,2C154,69.9,157.1,70.9,160.3,71.6z"
			/>
		<path class="st38" d="M17.9,99.1c0-0.9,0-2.4-0.2-4.4c-0.1-1.2,0-2.6,0.1-4.1c1.7-3.6,3.9-6.4,6.7-8.6c0.8-0.6,2.7-1.7,3.7-1.2
			c1.9,0.8,1.3,3.7,0.5,5.1c-2.6,4.6-6.1,8.1-10.6,10.6c-0.1,0.1-0.2,0.2-0.2,0.4L17.9,99.1z"/>
		<path class="st38" d="M15.5,92.2c0,0.3,0,0.7,0.1,1.3c0.1,0.8,0,1.7-0.1,2.6c-4.9-2.8-8.7-6.6-11.4-11.4c-0.4-0.8-0.7-1.7-0.6-2.7
			c0.1-0.6,0.6-1,1.1-1c1.6,0,3.3,1.4,4.5,2.5C11.6,85.9,13.7,88.8,15.5,92.2z"/>
		<path class="st38" d="M168.7,122.5c-0.1-0.2-0.1-0.3,0-0.3c3-3.1,5-5.3,6.1-6.8c2.8-3.7,5.1-6.6,7-8.9c2.5-3,9.8-10.2,14.2-7.5
			c1.8,1.1,1.2,4.2,0.3,5.7c-1.6,2.4-4,4.6-7.2,6.6c-2.4,1.6-4.6,2.8-6.5,3.8C177.9,117.4,173.3,119.9,168.7,122.5z"/>
		<path class="st38" d="M15.8,117.7l0.2,3.7c-4.6-4.7-9.4-8.9-12.2-14.9c-0.4-0.8-0.6-1.9-0.4-2.9c0.1-0.6,0.7-0.9,1.2-0.8
			c2.6,0.5,5.3,3.9,6.7,6.2C12.8,111.7,14.3,114.6,15.8,117.7z"/>
		<path class="st38" d="M18.4,122.8l-0.2-5.6c1.2-3.8,3.2-7,6-9.5c1.4-1.3,4.3-3.2,5.5-0.7c0.8,1.7,0,4.1-0.8,5.7
			c-1.6,3.1-4,5.9-7.2,8.4C20.6,121.8,19.5,122.4,18.4,122.8z"/>
		<path class="st38" d="M167,144.6l0,4.1c-2.1-2.9-4.6-5.9-7.5-8.9c-4-4.1-9.6-12.5-7.3-18.4c0.5-1.3,2-2.8,3.5-2
			c0.5,0.3,1,0.7,1.4,1.1c2.6,3.2,4.6,6.8,5.9,10.8c0.4,1.4,0.9,2.7,1.2,4.1c0.8,3.2,1.6,6.3,2.6,9.4c0,0.1,0.1,0.1,0.1,0L167,144.6
			z"/>
		<path class="st38" d="M16.6,147.4l0.2,6.4c-4.7-5.8-10.3-10.9-13-17.7c-0.4-0.9-1.2-4.1,0.5-4.2c1.9-0.1,4.9,3.6,5.9,5.1
			c2.2,3.6,4.2,7.5,6.1,11.8c0.1,0.2,0.2,0.2,0.2,0C16.6,148.4,16.7,147.9,16.6,147.4z"/>
		<path class="st38" d="M19.2,152.8l-0.3-7c0.3-0.4,0.7-1.2,1.1-2.2c1.2-3,3.1-5.7,5.7-8c0.7-0.6,2.2-1.6,3.1-1.4
			c2,0.4,1.7,3.1,1.2,4.5C28.1,144.3,24,149.6,19.2,152.8z"/>
		<path class="st38" d="M17.5,177.3c0.2,1.9,0.3,3.9,0.1,6c-1.7-1.8-3.4-3.6-5-5.4c-2.6-2.9-4.9-6.2-6.7-9.8
			c-0.7-1.4-3.6-7.3-1.7-8.4c2.1-1.2,6.5,4.8,7.5,6.4C13.9,169.5,15.9,173.3,17.5,177.3z"/>
		<path class="st38" d="M20.2,184.6l-0.2-6c1.7-5.4,4.4-10,8-13.9c1.3-1.4,2.5-2.3,3.6-2.8c2.6-1.1,3.2,1.5,2.9,3.4
			c-1.4,6.9-5.7,13.4-11.2,17.6C22.4,183.7,21.4,184.2,20.2,184.6z"/>
		<path class="st38" d="M168,208.1l0.1,3.9c-1.2-1.6-2.4-3-3.6-4.3c-2.4-2.7-4.8-5.4-7.2-8.1c-6.8-7.6-11.2-16.3-12.3-26.4
			c-0.2-1.4-0.7-9.4,2.9-7.2c1.6,1,3.1,2.2,4.4,3.8c5.7,6.8,9.3,15.9,11.5,24.7c0.7,2.8,1.3,5.4,1.9,8c0.5,2.2,1.2,4.3,2.1,6.5
			c0.1,0.2,0.1,0.2,0.2,0C168,208.7,168,208.5,168,208.1z"/>
		<path class="st38" d="M170.3,212.7c-0.3-2.6-0.3-5.2-0.1-7.9c0.6-3.5,1.3-7,2.3-10.4c2.3-8,6.1-15.2,11.6-21.4
			c2.4-2.8,5.5-5.1,9-6.2c1.4-0.4,2.5,0.3,2.3,1.9c-0.4,2.4-0.9,4.8-1.6,7.2c-2.3,7.3-5.8,14-10.6,20c-2.4,3-4.8,6-7.3,8.9
			C174,207.1,171.7,209.9,170.3,212.7z"/>
		<path class="st38" d="M18.5,206l0.1,5.2c-4.6-4.1-7.8-7.1-9.7-9.2c-3.2-3.6-6.2-7.8-7.6-12.4c-0.3-1-0.3-2,0-3
			c0-0.1,0.2-0.3,0.3-0.3c1.9-0.8,4.4,1.7,5.7,3c4.7,4.8,8.2,10.4,10.7,17c0,0.1,0.2,0.2,0.3,0.1c0.1,0,0.2-0.1,0.2-0.2
			C18.5,206.1,18.5,206.1,18.5,206z"/>
		<path class="st38" d="M20.9,211c-0.3-1.7-0.3-3.4-0.2-5.1c0.9-2.9,1.9-5.6,2.9-8.3c0.9-2.2,2-4.3,3.3-6.3c0.7-1.1,3.8-5.6,5.1-2.5
			c0.3,0.7,0.4,1.5,0.2,2.5c-0.5,2.3-1.3,4.7-2.4,7.1C27.9,202.5,24.9,206.7,20.9,211z"/>
	</g>
	<g>
		<path class="st39" d="M149.7,25.4c0.1,0,0.1-0.1,0.1-0.2c0,0,0-0.1-0.1-0.1c-2.4-1.1-4.4-2.4-6.1-3.7c-1.1-0.9-3.6-3.6-0.6-4.3
			c3.5-0.8,6.8,0.4,10.2,1.7c0.2,0.1,0.4,0,0.5-0.2c0-0.1,0-0.2,0-0.3c-0.2-0.5-0.4-1-0.7-1.5c-1.2-1.8-2.4-3.5-3.7-5.2
			c-1.1-1.4-1.8-2.9-2.3-4.5c-0.2-0.6,0.2-1.2,0.7-1.3c0,0,0.1,0,0.1,0c2-0.3,5.4,4,6.4,5.5c0.2,0.3,0.4,0.3,0.6,0
			c0,0,0.1-0.1,0.1-0.2c0.1-3,0.6-5.7,1.7-8.3c0.2-0.5,0.7-0.7,1.2-0.5c0,0,0,0,0,0c1.7,0.7,2.2,6.7,2.4,8.3
			c0.1,1.1,0.4,1.2,0.8,0.1c0.8-1.8,1.6-3.5,2.7-5.2c0.3-0.5,0.7-1.2,1.2-1.3c0.9-0.3,1.6,0,2,0.9c0.7,1.5,0.9,3.1,0.5,5
			c-0.7,2.9-1.9,5.7-3.5,8.4c-0.1,0.2-0.1,0.5,0.2,0.6c0.1,0.1,0.2,0.1,0.3,0.1c0.4-0.1,0.7-0.2,1.1-0.5c2.9-2.1,5.6-4,8.1-5.6
			c0.6-0.4,1.3-0.7,2.1-0.9c1.1-0.3,2.2,0.3,1.9,1.5c-0.8,3.8-5,7.5-8.1,9.6c-0.1,0.1-0.1,0.2-0.1,0.4c0,0,0.1,0.1,0.1,0.1
			c2.1,0.8,6.4,3.2,7,5.5c0.7,2.6-3,2.1-4.5,1.7c-1.4-0.4-2.8-0.8-4.3-1.1c-0.1,0-0.3,0-0.3,0.2c0,0.1,0,0.1,0,0.2
			c0.5,1.2,0.9,2.3,1.3,3.4c0.4,1.1,0.9,3.4,0.3,4.5c-0.1,0.1-0.2,0.2-0.3,0.2c-2.2,0.4-5.5-5.2-6.6-6.8c-0.1-0.1-0.3-0.2-0.4-0.1
			c0,0-0.1,0.1-0.1,0.1c-0.2,0.3-0.3,0.7-0.4,1c-0.9,2.6-1.8,5.1-2.8,7.5c-0.4,1-1.5,1.3-2.2,0.3c-0.3-0.4-0.5-0.8-0.6-1.2
			c-1.2-2.7-1.8-5.6-1.7-8.5c0-0.2-0.1-0.3-0.3-0.3c0,0-0.1,0-0.1,0c-2.6,0.6-5.2,1.3-7.8,2.1c-0.6,0.2-1.2,0.3-2,0.4
			c-1.2,0.1-1.8-0.9-1.2-1.9C144,28.3,146.8,26.7,149.7,25.4z"/>
		<path class="st39" d="M46.8,48.4c0.7,0.4,0.9,0.2,0.7-0.5c-0.6-2.2-1-4.2-0.9-5.8c0-0.9,0.4-1.4,1.3-1.4c3.6-0.3,5.6,4.5,5.9,7.4
			c0,0.5,0.3,0.6,0.6,0.3c0.1,0,0.1-0.1,0.2-0.2c0.8-2.4,2.1-5.5,5.1-5.4c3.7,0.1,2.9,4.6,2.3,6.8c-0.3,1.1,0.1,1.7,1.3,1.7
			c1.3,0.1,3.7-0.3,4.8,0.3c1.7,0.9-0.1,3.4-1,4.4c-1.5,1.6-3.3,2.8-5.4,3.7c-0.3,0.1-0.4,0.4-0.3,0.7c0,0,0,0.1,0.1,0.1
			c1.6,2.4-0.3,4.4-2.6,4.8c-2.2,0.4-4,0-5.4-1.2c-0.2-0.2-0.6-0.2-0.8,0.1c0,0,0,0.1-0.1,0.1c-0.3,0.5-0.7,1-1.1,1.5
			c-1,1.2-3.1,1.4-3.9-0.2c-0.6-1.1-0.7-2.4-0.6-3.7c0-0.2-0.1-0.3-0.2-0.3c0,0,0,0-0.1,0c-1.3,0.1-2.6,0.2-4,0.3
			c-1.4,0.1-2.5-0.4-3.2-1.4c-0.7-0.9-0.8-1.9-0.3-2.8c0.9-1.7,3-1.7,4.6-2c0.1,0,0.2-0.1,0.2-0.2c0,0,0-0.1,0-0.1
			c-1.4-1.8-2.2-3.8-2.2-6c0-1,0.6-1.8,1.6-1.9C44.6,47,45.6,47.7,46.8,48.4z"/>
		<path class="st39" d="M179.9,74.8c0.3-0.4,0.7-0.6,1.3-0.6c1.8-0.1,3.6-0.2,5.4-0.4c0.4,0,0.8-0.2,1.1-0.4
			c0.4-0.3,0.5-0.9,0.2-1.4c0,0,0,0,0,0c-0.6-0.7-2.7-0.5-3.5-0.4c-0.7,0.1-0.7-0.1-0.2-0.6c0.8-0.7,1.5-1.4,2.1-2.2
			c0.2-0.2,0.3-0.6,0.2-0.9c-0.1-0.3-0.2-0.6-0.4-0.8c-0.6-0.5-1.2-0.6-1.8,0l-1.2,1c-0.2,0.2-0.3,0.1-0.2-0.1
			c0.1-0.4,0.2-0.9,0.4-1.3c1-2.2-1.6-3.2-2.3-1.4c-0.8,2.1-1.5,4.5-2.2,7.1c-1.8-3.9-2.7-7.9-2.6-12c0.1-2.1,1-5.4,3.3-5.9
			c1.8-0.4,3.4,1.7,4.4,3c0.1,0.1,0.3,0.2,0.5,0.1c0,0,0.1-0.1,0.1-0.1c0.7-1.8,1.7-4.1,3.3-5.3c1.8-1.4,3.2,0.5,2.9,2.2
			c-0.2,1.7-0.6,3.3-1.1,4.6c-0.4,1.1-1.4,4-1,5c0.1,0.2,0.3,0.2,0.4,0.2c0,0,0.1,0,0.1,0c1.6-1.3,6.3-5.6,8.3-2.9
			c2.3,3-3.1,7.4-5.1,9.1c-0.2,0.1-0.2,0.4,0,0.5c0,0.1,0.1,0.1,0.2,0.1c1,0.4,2,1.1,2.7,2.1c1.5,1.9,0.8,4.4-1,5.7
			c-3.5,2.4-7.8,1.5-11-1C181.8,76.7,180.8,75.8,179.9,74.8z"/>
		<path class="st39" d="M179.6,145c1.8-0.2,3.6-0.2,5.5,0c1.4,0.1,2.3,0.1,2.7-0.1c0.4-0.2,0.6-0.4,0.8-0.8c0.2-0.5,0-1.1-0.5-1.3
			c-1-0.5-2.5-0.3-3.7-0.4c-0.6,0-0.6-0.2-0.1-0.5l2.9-1.6c0.7-0.4,0.9-1,0.7-1.7c-0.1-0.4-0.4-0.7-0.9-1c-0.4-0.2-0.8-0.2-1.2,0
			l-3.4,1.9c-0.4,0.2-0.6,0.1-0.4-0.3c0.5-1.2,0.9-2.6,1.2-4.1c0.1-0.5,0.1-0.9-0.1-1.3c-0.3-0.5-0.9-0.7-1.4-0.4c0,0,0,0,0,0
			c-0.5,0.3-0.8,0.6-1,1.1c-1,2.7-1.7,5.5-2.3,8.3c-1-1.5-1.6-2.9-2-4.2c-0.6-2-0.3-4.1,0.8-6.1c1.7-3,7.2-10.7,11.2-10.4
			c0.1,0,0.3,0.1,0.4,0.2c1.7,1.7-1.4,7.1-2.1,9c0,0.1,0,0.2,0.1,0.3c0.2,0.2,0.5,0.1,0.8-0.1c1.4-1.3,7.6-7.6,9.1-3.5
			c0.5,1.3-1.5,4.8-2.1,6.2c-0.1,0.3,0,0.6,0.3,0.8c0.1,0.1,0.2,0.1,0.4,0c2.2-0.4,4.2-0.4,6.1,0.2c1.8,0.5,2.9,2.2,1.9,4
			c-1.9,3.2-6.1,0.8-8.8,2.6c-0.3,0.2-0.4,0.6-0.2,0.9c0.1,0.1,0.2,0.2,0.3,0.2c1.7,0.8,3.4,1.5,4.9,2.7c4.3,3.3,1,7.3-3.1,7.6
			c-3,0.2-5.8-0.4-8.4-1.8C184.8,149.6,182.1,147.5,179.6,145z"/>
	</g>
	<g>
		<path class="st40" d="M18.8,47.8c1.5-1.8,2.9-3.7,4.2-5.7c0.6-0.9,0.7-2.4-0.7-2.5c-1.2-0.1-2.3,1.8-2.8,2.7
			c0,0.1-0.1,0.1-0.2,0.1c0,0-0.1,0-0.1,0c-0.1-0.1-0.1-0.2-0.1-0.3c0-1.1,0.1-5.1-1.9-4.5c-1.6,0.5-1,2.4-1,3.6
			c0,1.4-0.2,1.5-0.7,0.2c-0.4-1.1-0.9-2.1-1.4-3c-0.2-0.4-0.6-0.5-1-0.5c-1.3,0.3-1.3,1.2-0.8,2.2c1,2.5,2.4,5.1,4.2,7.6
			c-3.4-0.5-6.5-1.9-9.2-4c-3.8-3-6.1-6.8-7-11.5c-0.6-3-0.1-5.7,1.3-8c1.8-3,6.6-4.3,7.6,0.4c0.4,2.1,0.7,4.2,2.2,5.9
			c0.3,0.3,0.7,0.3,1,0c0.1-0.1,0.1-0.2,0.2-0.3c1-2.5,1.8-4.9,3.2-7.1c0.4-0.6,0.9-1,1.5-1.1c2.6-0.5,3.3,3.3,3.3,5
			c0,2.4,0,4.9-0.2,7.4c0,0.4,0.2,0.7,0.6,0.7c0.3,0,0.5-0.1,0.7-0.3c1.5-2.2,2.9-4.4,4.3-6.5c1.1-1.8,3.1-4.1,5.4-3.8
			c2.2,0.3,3.5,3.2,3.6,5.1c0.1,2-0.1,4-0.8,6c-2.1,6.1-6.5,10.1-12.9,12C20.5,47.8,19.7,47.9,18.8,47.8z"/>
		<path class="st40" d="M136.1,49.2c-0.3-2-1.1-3.8-2.3-5.5c-0.1-0.1-0.2-0.2-0.4-0.2c-0.7,0.1-1.2,0.3-1.4,0.9
			c-0.1,0.2-0.1,0.4,0,0.5l0.9,2.1c0.3,0.8,0.2,1-0.5,0.3c-0.9-0.8-2.9-1.8-3.3,0.2c-0.1,0.4,0.1,0.8,0.4,1l2.7,1.6
			c0.2,0.1,0.2,0.3,0.1,0.5c0,0,0,0,0,0c-0.1,0.2-0.3,0.3-0.5,0.4c-1.2,0.4-2.2,0.9-3,1.5c-0.4,0.3-0.5,0.8-0.2,1.2l0.1,0.1
			c0.4,0.6,1,0.8,1.7,0.5l3.8-1.5c-2.7,3.9-6.8,7.4-11.5,8.5c-3.4,0.8-8.2,0.4-9.5-3.4c-0.6-1.7,0.5-2.9,2-3.5c2.4-1,4.4-1.5,5.6-4
			c0.1-0.2,0-0.4-0.2-0.5c-0.1,0-0.1,0-0.2,0c-1.4,0.2-2.8,0.3-4.2,0.4c-1.8,0.1-2.8-0.5-3.3-1.8c-0.3-0.9-0.1-1.5,0.7-2
			c1.8-1,4.9-1,6.9-1c0.3,0,0.5-0.2,0.5-0.5c0,0,0-0.1,0-0.1c-0.5-1.6-2.2-3-3.2-4.4c-0.6-1-0.6-1.8,0.2-2.5
			c1.5-1.4,5.4,0.7,6.9,1.5c0.7,0.4,0.8,0.2,0.6-0.5c-0.4-1.2-1-2.4-1.7-3.8c-0.4-0.7-0.5-1.8,0.6-1.9c3.1-0.4,6.9,3.3,8.6,5.5
			C135.4,41.9,136.4,45.3,136.1,49.2z"/>
		<path class="st40" d="M67.7,183.5l-1.2,0.4c0-0.2-0.2-0.3-0.5-0.3c-1.4,0-2.7-0.3-4-0.9c-3.6-1.6-4.8-5.8-1.8-8.7
			c0.8-0.7,1.9-1.4,3.4-2c4.1-1.6,8.3,2.2,8.1,6.3c-0.1,1.8-1.1,4-2.8,4.7C68.2,183.1,67.9,183.3,67.7,183.5z"/>
		<path class="st40" d="M64.6,119.8l-7.2-2.6C60.4,114,63.9,116.1,64.6,119.8z"/>
		<path class="st40" d="M132.8,120.1l-7.2,1.2C127,117.9,130.5,117.4,132.8,120.1z"/>
		<path class="st40" d="M56.2,118.7l9.1,3.2c0,2.5-0.4,4.8-1.1,7l-8.6,0.4c-0.5-1.6-0.7-3.2-0.7-5l8.4,1c0.4,0,0.7-0.2,0.8-0.5
			c0-0.1,0.1-0.2,0.1-0.3c0-0.5-0.2-0.9-0.8-0.9l-8.2-1.3L56.2,118.7z"/>
		<path class="st40" d="M134.3,121.8c0.6,1.3,1,2.7,1.1,4.2c-3.6-0.3-6.8,0-11,0.4l0.3-2.9L134.3,121.8z"/>
		<path class="st40" d="M135.7,127.6c0.2,2.3-0.2,4.4-1.2,6.2c-1.8,3.2-5.8,2.7-7.6-0.1l5.5,0.3c0.3,0,0.5-0.1,0.7-0.4
			c0.2-0.3,0.1-0.6-0.1-0.9c-0.1-0.2-0.3-0.3-0.5-0.3l-7.1-0.9c-0.1-1.3-0.4-2.4-0.9-3.3L135.7,127.6z"/>
		<path class="st40" d="M62.3,130.8c-1.5,0.6-3,0.7-4.5,0.5L62.3,130.8z"/>
		<path class="st40" d="M130.7,152.7L130.7,152.7c0.4,0,0.7,0.2,0.7,0.6l2,28.5c0,0.4-0.2,0.7-0.6,0.7l0,0c-0.4,0-0.7-0.2-0.7-0.6
			l-2-28.5C130,153,130.3,152.7,130.7,152.7z"/>
		<path class="st40" d="M126.3,157.8L126.3,157.8c0.4,0,0.6,0.3,0.6,0.6l-0.1,15.6c0,0.3-0.3,0.6-0.6,0.6l0,0
			c-0.3,0-0.6-0.3-0.6-0.6l0.1-15.6C125.7,158.1,126,157.8,126.3,157.8z"/>
		<path class="st40" d="M48.9,162.8c0-0.4,0.2-0.6,0.5-0.8c0.2-0.1,0.4-0.1,0.6,0.1c0.1,0.1,0.2,0.2,0.2,0.4c0,5.2-0.5,10-1.5,14.6
			c0,0.2-0.2,0.4-0.5,0.4c-0.1,0-0.2,0-0.3-0.1c-0.3-0.2-0.4-0.5-0.4-0.8C48.3,171.6,48.7,167,48.9,162.8z"/>
		<path class="st40" d="M53.8,168.4L53.8,168.4c0.4,0,0.7,0.4,0.6,0.8l-1.2,11.7c0,0.4-0.4,0.7-0.8,0.6l0,0c-0.4,0-0.7-0.4-0.6-0.8
			l1.2-11.7C53.1,168.6,53.5,168.3,53.8,168.4z"/>
	</g>
	<g>
		<path class="st28" d="M181.7,0.2c2.8,2.1,4.7,5.1,5.2,8.5c0,0.2,0,0.3-0.2,0.4l-0.1,0.1c-0.2,0.2-0.4,0.1-0.5-0.2
			c-1.5-4.4-3.2-7.2-5.3-8.5c0,0,0,0,0-0.1c0-0.3,0.1-0.4,0.4-0.4C181.4,0,181.6,0.1,181.7,0.2z"/>
		<path class="st28" d="M183.7,9.8c0.1,0.3,0.1,0.5,0.1,0.8c0,0.7-0.1,1.1-0.3,1c-0.3,0-0.4-0.2-0.5-0.5c-0.2-1.5-0.8-2.9-1.7-4.3
			c-0.1-0.2-0.1-0.3-0.1-0.5c0-0.1,0.2-0.2,0.3-0.1c0,0,0,0,0.1,0C182.6,7,183.3,8.2,183.7,9.8z"/>
		<path class="st28" d="M178.5,72.3c0.7-2.6,1.4-5,2.2-7.1c0.7-1.8,3.3-0.8,2.3,1.4c-0.2,0.4-0.3,0.8-0.4,1.3c0,0.3,0,0.3,0.2,0.1
			l1.2-1c0.6-0.5,1.2-0.5,1.8,0c0.2,0.2,0.4,0.5,0.4,0.8c0.1,0.3,0,0.6-0.2,0.9c-0.5,0.7-1.2,1.4-2.1,2.2c-0.5,0.4-0.4,0.6,0.2,0.6
			c0.8-0.1,2.9-0.3,3.5,0.4c0.3,0.4,0.3,1-0.1,1.4c0,0,0,0,0,0c-0.3,0.2-0.7,0.3-1.1,0.4c-1.8,0.2-3.6,0.3-5.4,0.4
			c-0.5,0-0.9,0.2-1.3,0.6c-5,3.9-9,8.7-12.1,14.2c-0.1,0.1-0.1,0.3-0.1,0.4l1.1,32.7c-0.1,0.1-0.1,0.2,0,0.3l0.5,32.4
			c0,0.5,0.1,0.5,0.3,0.1c1.4-3,3.2-5.8,5.4-8.5c1-1.3,2.2-2.6,3.5-3.8c0.5-2.8,1.3-5.5,2.3-8.3c0.2-0.5,0.5-0.9,1-1.1
			c0.5-0.3,1.1-0.1,1.4,0.4c0,0,0,0,0,0c0.2,0.4,0.3,0.8,0.1,1.3c-0.4,1.5-0.8,2.9-1.2,4.1c-0.2,0.5,0,0.6,0.4,0.3l3.4-1.9
			c0.4-0.2,0.8-0.2,1.2,0c0.5,0.3,0.8,0.6,0.9,1c0.2,0.8,0,1.3-0.7,1.7l-2.9,1.6c-0.5,0.3-0.5,0.5,0.1,0.5c1.1,0.1,2.6-0.1,3.7,0.4
			c0.5,0.2,0.7,0.8,0.5,1.3c-0.1,0.4-0.4,0.6-0.8,0.8c-0.4,0.2-1.3,0.3-2.7,0.1c-1.9-0.2-3.7-0.2-5.5,0c-1.7,1.7-2.9,3.2-3.8,4.5
			c-2.1,2.9-3.9,6.2-5.6,9.7c-0.5,1.1-0.7,1.9-0.7,3.2c0.3,13.6,0.5,27.1,0.5,40.7c0,0.4,0.1,1,0.2,1.9c-0.2,2.6-0.2,5.2,0.1,7.9
			l0.2,11.3c0,0.3-0.1,0.5-0.3,0.7c-0.3,0.3-0.7,0.3-1.1,0.2c-0.4-0.1-0.7-0.5-0.7-1l-0.3-12l-0.1-3.9l-1-59.4l0-4.1
			c-0.5-20-1-40-1.7-60c0-1.3-0.2-2.5-0.6-3.5c-1-3-2.3-5.9-3.9-8.6c-0.2-0.3-0.3-0.6-0.6-0.8c-5.5-8.9-14.2-15.5-23.9-19.1
			c-0.9-0.3-1.6-0.2-2.1,0.4l-3.8,1.5c-0.7,0.3-1.2,0.1-1.7-0.5l-0.1-0.1c-0.3-0.4-0.2-0.9,0.2-1.2c0.8-0.6,1.8-1.1,3-1.5
			c0.2-0.1,0.4-0.2,0.5-0.4c0.1-0.1,0.1-0.4,0-0.5c0,0,0,0,0,0l-2.7-1.6c-0.3-0.2-0.5-0.6-0.4-1c0.4-1.9,2.4-1,3.3-0.2
			c0.7,0.6,0.8,0.5,0.5-0.3l-0.9-2.1c-0.1-0.2-0.1-0.4,0-0.5c0.3-0.5,0.7-0.8,1.4-0.9c0.2,0,0.3,0,0.4,0.2c1.2,1.7,2,3.5,2.3,5.5
			c0,0.3,0,0.5,0.1,0.6c0.1,0.2,0.2,0.3,0.3,0.3c11.5,4.1,20.3,11.2,26.4,21.5c0.7,1.1,1.2,2.2,1.7,3.4c0.3,0.7,0.4,0.6,0.3-0.1
			c-0.3-6.8-0.6-13.7-0.9-20.7c-0.3-5.3-0.9-10.7-1-15.8c0-0.3,0.1-0.5,0.2-0.7c0.3-0.4,0.6-0.5,0.8-0.4c0.6,0.3,1,0.8,1,1.4
			c0.9,12.5,1.6,24.9,1.9,37.2c0.1,2.7,0.3,5.5,0.4,8.4c0,0.4,0.1,0.4,0.3,0.1c1.7-2.9,3.9-5.5,6.3-7.9
			C176.5,74.4,177.9,73,178.5,72.3z"/>
		<path class="st28" d="M18.8,47.8L18,67.5l0,3.9l-0.1,19.1c-0.2,1.5-0.2,2.9-0.1,4.1c0.1,2.1,0.2,3.5,0.2,4.4l0.3,18l0.2,5.6
			l0.5,23l0.3,7l0.8,25.8l0.2,6l0.6,21.3c-0.2,1.7-0.1,3.4,0.2,5.1c0.1,4.3,0.3,8.5,0.3,12.5c0,1.7-2.3,1.8-2.3,0.2
			c-0.1-4-0.2-8.2-0.4-12.6l-0.1-5.2l-0.9-22.7c0.2-2.1,0.1-4.1-0.1-6l-0.8-23.6l-0.2-6.4l-0.6-25.9l-0.2-3.7l-0.3-21.6
			c0.2-1,0.2-1.9,0.1-2.6c-0.1-0.6-0.1-1-0.1-1.3l0.1-20.9l0.1-3.8l0.7-19.8c-1.8-2.5-3.2-5-4.2-7.6c-0.4-1-0.4-1.9,0.8-2.2
			c0.4-0.1,0.8,0.1,1,0.5c0.5,0.9,1,1.9,1.4,3c0.5,1.3,0.8,1.3,0.7-0.2c0-1.2-0.6-3.2,1-3.6c2-0.6,1.9,3.4,1.9,4.5
			c0,0.1,0,0.3,0.1,0.3c0,0,0.1,0,0.1,0c0.1,0,0.2-0.1,0.2-0.1c0.5-0.9,1.6-2.8,2.8-2.7c1.4,0.1,1.3,1.7,0.7,2.5
			C21.7,44.1,20.2,46,18.8,47.8z"/>
		<path class="st28" d="M103,41.5c-0.2,2.7,0.6,5.4,2,7.8c0.1,0.1,0,0.2-0.1,0.3c0,0,0,0,0,0l-0.1,0.1c-0.2,0.1-0.4,0.1-0.5-0.1
			c-1.7-2.5-2.4-5.1-1.9-7.9c0-0.2,0.1-0.3,0.3-0.3l0.2,0C102.9,41.3,103,41.4,103,41.5C103,41.5,103,41.5,103,41.5z"/>
		<path class="st28" d="M107,43.4c0.2,0.5,0.3,1,0.4,1.5c0,0.7-0.1,0.7-0.5,0.2c-0.3-0.5-0.6-1-0.7-1.6c0-0.1,0-0.2,0.2-0.3l0.1,0
			C106.7,43.1,106.9,43.2,107,43.4z"/>
		<path class="st28" d="M138.9,209.6c-0.4-4.1-0.8-8.1-1.3-12c-0.3-2.3-0.4-4.7-0.7-7.1c-0.2-1.7-0.4-3.5-0.6-5.3
			c-0.8-8.1-1.8-15.9-2.6-24.1c-0.3-3.1-0.6-6.2-1-9.3c-0.1-0.6,0-1.3,0.1-1.9c0-0.1,0.1-0.2,0.3-0.3c4.6-2.1,7.5-7.2,8.7-12.2
			c1.3-5.6,1.7-11.8,1.1-18.8c-0.8-9.6-2.8-19-6.6-27.9c-1.4-3.2-2.9-6.1-4.8-8.6c-0.7-1-2.2-3.3-3.6-2.5c-0.8,0.4-1.4,0.9-1.9,1.3
			c-3,2.7-5.8,6-8.4,9.9c-0.2,0.3-0.1,0.4,0.2,0.5c3.3,0.7,6.7,1,10.2,1c0.7,0,1.3,0.5,1.4,1.1c0,0,0,0.1,0,0.1
			c0,0.8-0.4,1.1-1.2,1.1c-1.9-0.1-3.8-0.2-5.7-0.3c-2-0.1-3.9-0.7-5.9-1c-11.1-1.3-21.1-1.3-33.6-1c-5.4,0.1-10.7,0.6-15.9,1.4
			c-0.5,0.1-0.9-0.2-1.1-0.6c-0.2-0.6-0.1-1,0.4-1.2c2.2-0.9,5-1,7.4-1.3c0.1,0,0.2-0.1,0.2-0.2c0.3-2.8,0.4-5.7,0.3-8.6
			c0-2.1-0.4-3.8-1.1-5.2c-0.9-1.7-3.4-1.3-4.8-0.7c-3.7,1.7-6.6,5.1-8.8,8.5c-3.8,5.8-6.3,12.4-8,19.1c-1,3.8-1.8,8-2.4,12.6
			c-0.5,3.4-0.9,6.9-1.2,10.3c-0.3,4.3-0.5,7.5-0.5,9.7c-0.2,9.2-0.5,18-0.8,26.4c-0.1,4-0.2,6.6-0.3,7.7
			c-0.6,6.4-1.3,13.4-2.2,21.2c-0.5,4.1-1.5,10.3-2.9,18.6l-1.4,7.4c0,0.2-0.2,0.4-0.4,0.5c-0.3,0.1-0.5,0.2-0.8,0.1
			c-0.6-0.2-0.9-0.6-0.8-1.2c2-9.9,3.6-20.1,4.8-30.6c1.6-13.6,2.5-27.4,2.5-41.2c0-9.1,0.6-18.1,1.6-26.8c0.5-4.4,1.3-8.9,2.4-13.4
			c1.5-6.4,3.7-12.8,6.8-18.5c2.7-5,7.9-12.1,13.8-13.1c3.4-0.5,5.5,1.1,6.2,4.4c0.8,4.2,0.6,8.4,0.3,12.7c0,0.1,0.1,0.2,0.2,0.2
			c0,0,0,0,0,0C84.5,90,92.7,89.8,101,90c4.6,0.1,9.1,0.4,13.6,0.8c0.3,0,0.5-0.1,0.6-0.3c2.4-3.7,5.1-7.2,8.3-10.4
			c1.4-1.4,2.8-2.4,4.3-2.8c5.1-1.7,11.6,15.3,12.8,19.1c1,3.3,1.9,6.4,2.5,9.3c1,4.8,1.7,10,2.1,15.5c0.3,4.2,0.1,8.8-0.7,13.7
			c-0.9,6.1-3.5,12.7-8.9,15.8c-0.3,0.2-0.4,0.5-0.4,0.8c0.7,5.4,1.1,10.7,1.8,16c0.4,2.9,0.6,6,0.9,9c0.6,5.2,1.1,10.5,1.7,15.7
			c0.4,3.9,1,8,1.3,12c0.3,4,1,8.2,1.2,12.2c0.1,1.5-2.4,1.7-2.5-0.2C139.5,213.8,139.3,211.6,138.9,209.6z"/>
		<path class="st28" d="M97.9,210l0.7,14.6c0,0.9-0.4,1.4-1.2,1.5c-0.2,0-0.4,0-0.7-0.1c-0.6-0.3-0.8-0.7-0.9-1.4l-0.6-14.6
			c-0.5-14.5-0.8-27.3-0.9-38.4c0-1.9,2.6-1.9,2.7-0.3C97.3,184.4,97.6,197.3,97.9,210z"/>
		<path class="st28" d="M67.7,183.5c0.6,2.4,1.1,4.9,1.3,7.5c0,0.2,0.2,0.3,0.4,0.3c0,0,0.1,0,0.1,0c2.4-1.3,4.6-3.7,6.4-5.6
			c0.5-0.5,1.1-0.6,1.7-0.3c0.1,0.1,0.2,0.1,0.3,0.3c0.5,0.7,0.5,1.4-0.1,2c-2.1,2.4-4.9,5.2-7.9,6.4c-0.2,0.1-0.2,0.2-0.2,0.4
			c0.3,2.8,0.7,5.5,1.2,8.1c0,0.1,0.2,0.2,0.3,0.2c0.1,0,0.1,0,0.1-0.1l5.1-5.3c0.6-0.6,1.3-0.7,1.9-0.1c0.1,0.1,0.2,0.2,0.2,0.2
			c0.4,0.6,0.4,1.1-0.1,1.7c-1.2,1.3-2.6,2.7-4.2,4.3c-0.9,0.9-1.8,1.5-2.7,2c-0.2,0.1-0.3,0.3-0.3,0.5l0.7,4.3l0.4,3.7
			c0,0.1,0.1,0.2,0.2,0.2c0.1,0,0.1,0,0.1-0.1l3.5-4c0.6-0.7,1.2-1.4,2-2.2c0.4-0.4,0.8-0.4,1.4,0c0.9,0.6,0.9,1.4,0,2.4
			c-1.3,1.4-2.6,3-4.1,4.6c-0.7,0.8-1.5,1.5-2.4,2.1c-0.1,0.1-0.2,0.2-0.2,0.3l0.8,5.5c0.1,0.5-0.1,0.8-0.6,0.9l-0.2,0
			c-0.6,0.1-0.9-0.1-1.1-0.7c-0.4-1.6-0.7-3.3-0.9-5.1c0-0.4-0.3-0.7-0.7-0.7c-3.8-0.6-7.8-1.6-11.9-3.1c-0.4-0.1-0.7-0.6-0.7-1.3
			c0-0.1,0-0.2,0.1-0.3c0.4-0.8,1-1,1.8-0.8c3.2,1,6.5,1.9,10,2.8c0.6,0.1,0.8-0.1,0.7-0.6l-0.5-3.8l-0.5-4.1c0-0.2-0.1-0.2-0.2-0.3
			c-3.5-0.8-7.1-2.1-10.7-3.7c-0.8-0.4-1-0.9-0.7-1.7c0-0.1,0.1-0.2,0.2-0.3c0.4-0.5,1-0.7,1.6-0.4c2.7,1.2,5.6,2.3,8.7,3.3
			c0.5,0.2,0.8,0,0.7-0.6l-1.1-7.6c0-0.2-0.1-0.3-0.3-0.3c-3.3-0.2-6.7-1.3-10.1-3.2c-0.8-0.4-1-1-0.6-1.8c0.2-0.4,0.4-0.6,0.8-0.8
			c0.3-0.1,0.6-0.1,0.9,0c2.6,1.4,5.6,2.8,8.6,3.1c0.1,0,0.2-0.1,0.2-0.2c0,0,0,0,0-0.1c-0.4-2.1-0.8-4.3-1.1-6.5
			c0-0.4,0-0.7,0.1-1.1L67.7,183.5z"/>
		<path class="st28" d="M161.5,20.4c1.9,1.1,1,2.9-0.6,3.4c-1.6,0.5-3.3,0.4-4.9-0.5c-0.8-0.4-1.5-1.7-0.4-2.2c1.5-0.7,3-1.1,4.6-1
			C160.6,20.1,161.1,20.2,161.5,20.4z"/>
		<ellipse transform="matrix(0.9947 -0.1028 0.1028 0.9947 -5.331 5.8467)" class="st28" cx="54.1" cy="54.6" rx="3.8" ry="2.3"/>
		<path class="st28" d="M68.4,108.7c2.5,2,4.9,1.1,6.9-0.9c0.4-0.4,1-0.4,1.4,0c0,0,0,0,0,0c0.9,1-0.3,2.4-1.2,3
			c-2.3,1.6-4.8,1.8-7.4,0.6c-0.7-0.3-1.2-0.8-1.6-1.5c-0.3-0.5-0.2-1.1,0.3-1.4C67.4,108,68,108.3,68.4,108.7z"/>
		<path class="st28" d="M118.8,113.7c-2.8,1-5.9,0.4-7.9-1.9c-0.6-0.7-1.2-2.1-0.2-2.6c0.4-0.2,0.9-0.1,1.3,0.2
			c0.7,0.7,1.1,1.5,2,1.9c1.8,0.9,3.8,0.5,5.4-0.7c0.4-0.3,0.9-0.3,1.4,0c0.5,0.3,0.6,0.8,0.4,1.4
			C120.8,113,119.7,113.4,118.8,113.7z"/>
		<path class="st28" d="M92,116.9l-0.1-1.4c0-0.8,0.3-1.2,1.1-1.2l0.3,0c0.7,0,1.1,0.4,1.2,1.1c0,0.8,0.1,1.6,0,2.4
			c0,0.1,0,0.2,0.1,0.2c0,0.1,0.1,0.1,0.2,0c0,0,0.1-0.1,0.1-0.1c0.2-0.9,0.4-4.1,2.2-3.4c1.4,0.5,0.9,1.7,0.8,2.8
			c0,0.3,0,0.4,0.3,0.1c0.5-0.6,1-1.2,1.5-1.8c0.4-0.5,1-0.6,1.7-0.4c0.1,0,0.2,0.1,0.3,0.2c0.7,0.6,0.7,1.3,0.1,2
			c-1.8,2.1-3.8,4.2-6,6.4c-0.1,0.1-0.2,0.3-0.2,0.5l-0.3,5.8c0,0.2,0.1,0.4,0.4,0.4c0,0,0,0,0,0c1.3,0,2.3-0.5,3.1-1.6
			c0.5-0.7,1.4-0.9,2-0.1c0.4,0.5,0.4,1.1,0.1,1.7c-1.3,2.3-4,2.8-6.6,2.6c-2.2-0.1-4.1-1.1-5.4-2.9c-0.5-0.6-0.4-1.2,0.1-1.8
			c0,0,0.1-0.1,0.1-0.1c0.8-0.5,1.5-0.4,2,0.3c0.4,0.5,0.8,0.9,1.3,1.3c0.1,0.1,0.2,0.1,0.3,0c0,0,0-0.1,0-0.1l0.4-5.4
			c0-0.2,0-0.4-0.1-0.6c-1.1-1.8-2.5-3.7-4.1-5.5c-0.6-0.7-0.6-1.3,0-1.9l0.2-0.2c0.4-0.5,1.1-0.5,1.6-0.1c0,0,0,0,0,0l1.1,1.1
			C91.9,117.2,92,117.2,92,116.9z"/>
		<path class="st28" d="M57.4,117.2l7.2,2.6l4.8,1.3c0.5,0.1,0.7,0.4,0.7,0.9c0,0.1,0,0.3-0.1,0.4c-0.2,0.3-0.5,0.4-0.9,0.3
			l-3.8-0.8l-9.1-3.2l-5.8-2.5c-0.4-0.2-0.6-0.5-0.5-0.9l0.1-0.3c0.1-0.4,0.4-0.6,0.8-0.4L57.4,117.2z"/>
		<path class="st28" d="M134.3,121.8l-9.6,1.6c-1.6,0-3.3,0.2-4.9,0.4c-0.7,0.1-1.3-0.1-1.8-0.6c-0.1-0.1-0.2-0.3-0.1-0.5
			c0.2-0.5,0.5-0.8,1.1-0.8c2.3-0.2,4.5-0.4,6.7-0.7l7.2-1.2l3.2-0.4c0.2,0,0.4,0.1,0.5,0.2c0.2,0.2,0.2,0.4,0.2,0.6
			c-0.1,0.5-0.4,0.9-0.9,1L134.3,121.8z"/>
		<path class="st28" d="M55.1,122.4l8.2,1.3c0.5,0.1,0.8,0.4,0.8,0.9c0,0.1,0,0.2-0.1,0.3c-0.1,0.3-0.5,0.5-0.8,0.5l-8.4-1l-5.5-0.7
			c-0.3,0-0.6-0.3-0.6-0.7c0,0,0,0,0,0l0-0.2c0.1-0.5,0.4-0.7,0.9-0.7L55.1,122.4z"/>
		<path class="st28" d="M135.4,126l0.2,1.6l-11.2,0.6c-0.5-0.1-0.7-0.3-0.6-0.8c0-0.4,0.2-0.8,0.6-1
			C128.6,125.9,131.8,125.7,135.4,126z"/>
		<path class="st28" d="M64.1,128.9l3.2,0.1c0.4,0,0.6,0.2,0.8,0.5c0.1,0.3,0.1,0.6-0.2,0.9c-0.2,0.2-0.4,0.3-0.6,0.3l-4.9,0.1
			l-4.5,0.5c-1.7-0.1-2.9,0.1-4.4,0.2c-0.3,0-0.5-0.1-0.7-0.2c-0.3-0.3-0.3-0.7-0.1-1.2c0.1-0.2,0.4-0.4,0.6-0.4l2.2-0.3L64.1,128.9
			z"/>
		<path class="st28" d="M125.4,131.5l7.1,0.9c0.2,0,0.4,0.1,0.5,0.3c0.2,0.3,0.3,0.6,0.1,0.9c-0.2,0.3-0.4,0.4-0.7,0.4l-5.5-0.3
			c-1.7-0.4-3.5-0.7-5.4-1c-1.1-0.2-2-0.5-2.8-0.9c-0.4-0.2-0.5-0.7-0.3-1.1c0,0,0-0.1,0-0.1c0.3-0.4,0.7-0.5,1.2-0.4
			C121.5,130.7,123.4,131.1,125.4,131.5z"/>
	</g>
</g>
</g><g transform="scale(0.0495) translate(0, 3519.1919191919)"><path transform="translate(0,0) rotate(180) scale(-1, 1)" d="M275 482q51 0 95.5 -19.5t78 -53.5t52.5 -79.5t19 -97.5t-19 -97.5t-52.5 -79.5t-78 -53.5t-95.5 -19.5t-95.5 19.5t-78 53.5t-52.5 79.5t-19 97.5t19 97.5t52.5 79.5t78 53.5t95.5 19.5zM275 330q-43 0 -64 -29.5t-21 -68.5q0 -42 21 -71t64 -29t64 29t21 71 q0 39 -21 68.5t-64 29.5zM490 222q10 0 10 10q0 48 -17.5 90t-48 73t-71.5 49t-88 18q-10 0 -10 -10t10 -10q43 0 80 -16.5t65 -45t44 -66.5t16 -82q0 -10 10 -10z" class='title'/><path transform="translate(550,0) rotate(180) scale(-1, 1)" d="M280 -18q-45 0 -85 15.5t-72 43.5l-8 -8q18 -18 39.5 -32.5t45.5 -23.5v-227l-160 3v479q0 52 19 97.5t51.5 79.5t76 53.5t93.5 19.5t93.5 -19.5t76 -53.5t51.5 -79.5t19 -97.5t-19 -97.5t-51.5 -79.5t-76 -53.5t-93.5 -19.5zM480 232q1 0 3 -1t7 -9q10 0 10 10 q0 48 -17 90t-47 73t-70 49t-86 18q-10 0 -10 -10t10 -10q42 0 78.5 -16.5t63.5 -45t42.5 -66.5t15.5 -82zM200 232q0 -42 19.5 -71t60.5 -29t60.5 29t19.5 71q0 39 -19.5 68.5t-60.5 29.5t-60.5 -29.5t-19.5 -68.5z" class='title'/><path transform="translate(1100,0) rotate(180) scale(-1, 1)" d="M470 408q0 -29 -20.5 -49.5t-49.5 -20.5h-80v-338h-160v338h-80q-29 0 -49.5 20.5t-20.5 49.5t20.5 49.5t49.5 20.5h320q29 0 49.5 -20.5t20.5 -49.5zM430 408q0 -10 10 -10t10 10q0 20 -15 35t-35 15q-10 0 -10 -10t10 -10q12 0 21 -9t9 -21z" class='title'/><path transform="translate(1580,0) rotate(180) scale(-1, 1)" d="M275 482q51 0 95.5 -19.5t78 -53.5t52.5 -79.5t19 -97.5t-19 -97.5t-52.5 -79.5t-78 -53.5t-95.5 -19.5t-95.5 19.5t-78 53.5t-52.5 79.5t-19 97.5t19 97.5t52.5 79.5t78 53.5t95.5 19.5zM275 330q-43 0 -64 -29.5t-21 -68.5q0 -42 21 -71t64 -29t64 29t21 71 q0 39 -21 68.5t-64 29.5zM490 222q10 0 10 10q0 48 -17.5 90t-48 73t-71.5 49t-88 18q-10 0 -10 -10t10 -10q43 0 80 -16.5t65 -45t44 -66.5t16 -82q0 -10 10 -10z" class='title'/><path transform="translate(2130,0) rotate(180) scale(-1, 1)" d="M40 402q0 33 23.5 56.5t56.5 23.5t56.5 -23.5t23.5 -56.5v-268h100v268q0 33 23.5 56.5t56.5 23.5t56.5 -23.5t23.5 -56.5v-268h100v268q0 33 23.5 56.5t56.5 23.5t56.5 -23.5t23.5 -56.5v-402h-680v402zM160 402q0 -10 10 -10t10 10q0 25 -17.5 42.5t-42.5 17.5 q-10 0 -10 -10t10 -10q17 0 28.5 -11.5t11.5 -28.5zM420 402q0 -10 10 -10t10 10q0 25 -17.5 42.5t-42.5 17.5q-10 0 -10 -10t10 -10q17 0 28.5 -11.5t11.5 -28.5zM680 402q0 -10 10 -10t10 10q0 25 -17.5 42.5t-42.5 17.5q-10 0 -10 -10t10 -10q17 0 28.5 -11.5t11.5 -28.5 z" class='title'/><path transform="translate(2890,0) rotate(180) scale(-1, 1)" d="M200 37v-37h-160v402q0 33 23.5 56.5t56.5 23.5t56.5 -23.5t23.5 -56.5v-154l149 190q14 17 31 30.5t40 13.5q33 0 56.5 -23.5t23.5 -56.5v-402h-160v213l-139 -177zM160 402q0 -10 10 -10t10 10q0 25 -17.5 42.5t-42.5 17.5q-10 0 -10 -10t10 -10q17 0 28.5 -11.5 t11.5 -28.5zM460 402q0 -10 10 -10t10 10q0 25 -17.5 42.5t-42.5 17.5q-10 0 -10 -10t10 -10q17 0 28.5 -11.5t11.5 -28.5z" class='title'/><path transform="translate(3430,0) rotate(180) scale(-1, 1)" d="M480 82q0 -10 10 -10t10 10q0 51 -21.5 94.5t-57.5 74.5l-10 -18q32 -27 50.5 -66t18.5 -85zM455 400q0 -9 9 -10q10 -2 12 8q2 26 -14 44t-41 21q-10 2 -12 -9q0 -10 9 -10q15 -1 26.5 -14t10.5 -30zM160 402q0 -10 10 -10t10 10q0 25 -17.5 42.5t-42.5 17.5 q-10 0 -10 -10t10 -10q17 0 28.5 -11.5t11.5 -28.5zM200 0h-160v402q0 33 23.5 56.5t56.5 23.5t56.5 -23.5t23.5 -56.5v-75q-24 -9 -45.5 -23.5t-39.5 -32.5l8 -8q31 27 70 42.5t84 16.5l70 119q11 20 30 30t40 10q22 0 39 -10q20 -11 30 -30.5t10 -40.5q0 -22 -10 -39 l-55 -93q41 -33 65 -81t24 -105v-82h-160v84q0 39 -19.5 68.5t-60.5 29.5t-60.5 -29.5t-19.5 -68.5v-84z" class='title'/></g><g transform="scale(0.018) translate(486.97916666667, 10755.555555556)"><path transform="translate(0,0) rotate(180) scale(-1, 1)" d="M621 209h100c-57 -149 -189 -217 -344 -217c-241 0 -325 162 -287 360c39 203 191 355 417 355c151 0 267 -66 260 -220h-100c7 113 -56 184 -171 184c-171 0 -272 -161 -302 -320c-33 -169 17 -323 183 -323c107 0 202 61 244 181z" class='slogan'/><path transform="translate(1037,0) rotate(180) scale(-1, 1)" d="M222 26c68 0 125 43 137 104c12 62 -31 98 -98 98h-68l8 39h67c69 0 112 33 123 90c11 58 -22 96 -87 96c-67 0 -116 -41 -142 -103h-86c31 80 114 137 235 137c125 0 178 -60 164 -133c-10 -53 -51 -92 -121 -106c77 -16 110 -61 100 -117c-16 -80 -114 -138 -238 -138 c-121 0 -186 56 -184 137h88c0 -67 39 -104 102 -104z" class='slogan'/><path transform="translate(1555,0) rotate(180) scale(-1, 1)" d="M582 480l-72 -368c-9 -52 3 -74 37 -74c33 0 60 22 60 22l-6 -30s-35 -37 -100 -37c-58 0 -82 30 -74 93c-46 -57 -110 -93 -189 -93c-134 0 -213 103 -185 246c28 144 147 248 282 248c75 0 125 -34 149 -88l45 81h53zM441 240c25 128 -12 211 -98 211 c-87 0 -165 -84 -190 -212c-25 -127 21 -210 107 -210c87 0 156 83 181 211z" class='slogan'/><path transform="translate(2181,0) rotate(180) scale(-1, 1)" d="M67 287c64 329 184 396 303 424l216 45l-8 -77l-205 -44c-110 -24 -171 -76 -218 -244c46 59 119 96 201 96c143 0 226 -106 198 -249c-28 -140 -146 -245 -301 -245c-138 0 -227 85 -186 294zM159 240c-24 -128 21 -214 106 -214c86 0 165 86 189 214 c25 126 -20 213 -106 213c-85 0 -164 -85 -189 -213z" class='slogan'/><path transform="translate(2776,0) rotate(180) scale(-1, 1)" d="M53 240c28 144 151 247 295 247s227 -106 199 -248c-28 -143 -151 -246 -295 -246s-227 103 -199 247zM152 240c-24 -128 21 -214 106 -214c86 0 165 86 189 214c25 126 -20 213 -106 213c-85 0 -164 -85 -189 -213z" class='slogan'/><path transform="translate(3364,0) rotate(180) scale(-1, 1)" d="M388 451c-65 0 -130 -58 -164 -158l-57 -293h-97l70 368c10 51 -3 74 -36 74s-61 -23 -61 -23l7 30s35 38 101 38c56 0 87 -27 90 -79c48 50 111 79 179 79c75 0 123 -36 136 -94c50 59 118 94 193 94c104 0 156 -69 136 -168l-61 -319h-98l60 309c18 91 -7 142 -69 142 c-68 0 -137 -63 -169 -173l-53 -278h-98l60 309c18 91 -7 142 -69 142z" class='slogan'/><path transform="translate(4313,0) rotate(180) scale(-1, 1)" d="M53 240c28 144 151 247 295 247s227 -106 199 -248c-28 -143 -151 -246 -295 -246s-227 103 -199 247zM152 240c-24 -128 21 -214 106 -214c86 0 165 86 189 214c25 126 -20 213 -106 213c-85 0 -164 -85 -189 -213z" class='slogan'/><path transform="translate(4901,0) rotate(180) scale(-1, 1)" d="M253 29c70 0 148 60 183 168l55 283h97l-71 -368c-10 -52 3 -74 36 -74s61 22 61 22l-6 -30s-35 -37 -101 -37c-59 0 -90 28 -91 84c-52 -53 -121 -84 -195 -84c-108 0 -165 67 -145 168l62 319h97l-60 -309c-17 -89 10 -142 78 -142zM481 672h76 c-14 -70 -89 -120 -181 -120s-148 50 -134 120h76c-10 -53 18 -87 65 -87s88 34 98 87z" class='slogan'/><path transform="translate(5813,0) rotate(180) scale(-1, 1)" d="M53 240c28 144 151 247 295 247s227 -106 199 -248c-28 -143 -151 -246 -295 -246s-227 103 -199 247zM152 240c-24 -128 21 -214 106 -214c86 0 165 86 189 214c25 126 -20 213 -106 213c-85 0 -164 -85 -189 -213z" class='slogan'/><path transform="translate(6668,0) rotate(180) scale(-1, 1)" d="M555 283c-38 -198 -153 -290 -297 -290c-152 0 -233 103 -205 246c28 145 152 248 292 248c72 0 123 -32 145 -82h5c12 253 -130 313 -287 313l7 39c214 0 418 -76 340 -474zM152 240c-24 -128 21 -214 106 -214c86 0 165 86 189 214c25 126 -20 213 -106 213 c-85 0 -164 -85 -189 -213z" class='slogan'/><path transform="translate(7266,0) rotate(180) scale(-1, 1)" d="M527 342c-18 -87 -104 -127 -377 -128c-11 -109 48 -165 148 -165c110 0 190 64 190 64l-7 -39s-84 -81 -224 -81c-157 0 -231 106 -204 246c28 141 143 247 307 247c127 0 183 -60 167 -144zM349 453c-95 0 -170 -100 -193 -198c221 1 276 31 287 88 c13 67 -24 110 -94 110z" class='slogan'/><path transform="translate(7837,0) rotate(180) scale(-1, 1)" d="M388 451c-65 0 -130 -58 -164 -158l-57 -293h-97l70 368c10 51 -3 74 -36 74s-61 -23 -61 -23l7 30s35 38 101 38c56 0 87 -27 90 -79c48 50 111 79 179 79c75 0 123 -36 136 -94c50 59 118 94 193 94c104 0 156 -69 136 -168l-61 -319h-98l60 309c18 91 -7 142 -69 142 c-68 0 -137 -63 -169 -173l-53 -278h-98l60 309c18 91 -7 142 -69 142z" class='slogan'/><path transform="translate(8786,0) rotate(180) scale(-1, 1)" d="M495 446l-86 -446h-97l39 205c-20 -6 -53 -12 -95 -12h-5l-153 -193h-96l170 204c-70 21 -101 71 -88 135c16 82 95 148 237 148c110 0 174 -41 174 -41zM276 232c30 0 62 7 83 12l36 189c-25 7 -50 11 -76 11c-79 0 -129 -45 -141 -105c-12 -62 21 -107 98 -107z" class='slogan'/><path transform="translate(9320,0) rotate(180) scale(-1, 1)" d="M200 480l90 -170l165 170h66l-205 -218l139 -262h-111l-105 196l-186 -196h-67l227 245l-125 235h112z" class='slogan'/><path transform="translate(9842,0) rotate(180) scale(-1, 1)" d="M96 212l85 488h97l-105 -488h-77zM42 54c7 34 40 61 73 61c34 0 56 -27 50 -61c-7 -34 -39 -61 -73 -61s-57 27 -50 61z" class='slogan'/></g></svg>